<svg xmlns="http://www.w3.org/2000/svg" viewBox="0 0 245.5 214.6"><path fill="none" stroke="#3f3a3c" stroke-width="8" stroke-linecap="round" stroke-miterlimit="10" d="M122.2 193v-69"/><path d="M206.8 87.5c0-46.1-37.6-83.5-83.7-83.5S39.8 41.4 39.8 87.5c0 33.5 19.3 62.3 48.3 75.6v17.1c0 6.1 6 11.8 14 11.8h41.1c8 0 14.9-5.7 14.9-11.8v-16.6c28.1-13.1 48.7-42.3 48.7-76.1z" fill="none" stroke="#ff7543" stroke-width="8" stroke-linecap="round" stroke-miterlimit="10"/><path d="M101.2 193.4c.2 11.8 9.8 21.2 21.6 21.2s21.4-9.5 21.6-21.2h-43.2z" fill="#ff7543"/><path d="M120.6 108c-1.8 0-3.6-.2-5.4-.7h-.1l-1.7-.7c-3.1-1-5.8-2.7-8-4.9-3.8-3.8-6-9.1-6-14.4 0-5.4 2.2-10.6 6-14.4l.1-.1 4-3.1.1.1c3.2-1.8 6.6-2.6 10.3-2.6h.1l.1-.1c4.3.4 6.7.6 10.5 2.8 2.6 1.5 6.2 4.6 7.8 7.8l2 4.6v.1c1 3.6 1 7.2 0 10.8-1.4 5.1-4.8 9.5-9.3 12.1-3.4 1.7-6.9 2.7-10.5 2.7z" fill="#3f3a3c"/><path d="M119.8 68.4c4.1.4 6.2.6 9.9 2.7 2.6 1.5 5.8 4.5 7.1 7.2.6 1.5 1.3 3 1.9 4.5.9 3.3.9 6.6 0 9.9-1.3 4.7-4.4 8.7-8.6 11.2-2.9 1.7-6.2 2.5-9.5 2.5-1.7 0-3.3-.2-4.9-.7-.6-.2-1.1-.5-1.7-.7-2.8-.9-5.3-2.5-7.5-4.6-3.5-3.5-5.5-8.3-5.5-13.3s2-9.8 5.5-13.3l3.8-2.9c2.9-1.7 6.1-2.5 9.5-2.5m.1-3.4h-.1c-3.9 0-7.7 1.1-11.1 3l-.2.1-.2.1-3.8 2.9-.2.1-.1.1c-4.1 4.1-6.4 9.8-6.4 15.6 0 5.8 2.4 11.5 6.4 15.6 2.5 2.4 5.4 4.2 8.6 5.3.5.2 1 .4 1.6.7l.2.1.2.1c1.9.5 3.8.8 5.8.8 3.9 0 7.8-1 11.1-3 4.9-2.9 8.6-7.6 10.1-13.1 1-3.9 1-7.8 0-11.6l-.1-.2-.1-.2-.5-1.2-1.4-3.3v-.2c-1.7-3.6-5.6-6.9-8.4-8.6-4.1-2.4-6.8-2.8-11.2-3.2l-.2.1z" fill="#fff"/><path d="M100.4 133.7c-4.6 0-9.2-1.9-12.4-5.2-.9-.9-1.7-1.9-2.3-2.9-2.4 2-5.5 3.2-8.7 3.2-7.4 0-13.7-6.3-13.7-13.7 0-1.9.4-3.7 1.1-5.4-1.5-.9-3-1.9-4.2-3.1-4.4-4.4-5.9-10.2-4.6-17.7 1.2-6.6 7.1-11 12.5-12.5 1.3-.6 2.6-1.1 4.1-1.5 2.1-.5 4.4-.8 6.6-.8 3.1 0 6.1.5 8.6 1.6.8.3 1.5.6 2.3.9 1.1.4 2.3.9 3.6 1.5 2 .9 3.6 2.2 5.3 3.6l.6.5c3 2.4 5.3 5.9 7.1 10.7 1.2 2.8 1.9 5.3 2.2 7.7 1.6.8 3.1 1.9 4.3 3.2 3.3 3.3 5.2 7.8 5.2 12.4 0 4.6-1.9 9.2-5.2 12.4-3.2 3.3-7.7 5.1-12.4 5.1z" fill="#3f3a3c"/><path d="M78.9 75.8c2.8 0 5.6.4 8 1.4 2 .8 3.8 1.4 5.8 2.3 2.1 1 3.7 2.4 5.5 3.8 3.2 2.6 5.2 6.2 6.6 10 1.1 2.7 2 5.4 2.2 8.2 1.7.8 3.3 1.9 4.7 3.2 3 3 4.7 7.1 4.7 11.3 0 4.2-1.7 8.3-4.7 11.3s-7.1 4.7-11.3 4.7c-4.2 0-8.3-1.7-11.3-4.7-1.3-1.3-2.3-2.8-3.1-4.4-2.2 2.6-5.5 4.2-9.1 4.2-6.6 0-12-5.5-12-12 0-2.2.6-4.3 1.7-6.1-2-.9-3.8-2.1-5.2-3.6-4.6-4.6-5.2-10.2-4.1-16.2 1-5.6 6.1-9.8 11.5-11.3 1.2-.6 2.4-1.1 3.9-1.4 1.9-.4 4-.7 6.2-.7m0-3.2c-2.4 0-4.8.3-7 .8-1.5.4-2.9.9-4.3 1.6-5.9 1.7-12.2 6.5-13.5 13.7-1.4 8 .2 14.3 5 19.1 1 1 2.1 1.9 3.3 2.7-.5 1.5-.8 3.1-.8 4.7 0 8.3 7 15.3 15.3 15.3 3 0 5.9-.9 8.3-2.5.5.6 1 1.2 1.6 1.8 3.6 3.6 8.5 5.6 13.6 5.6s10-2.1 13.6-5.6c3.6-3.6 5.6-8.5 5.6-13.6s-2.1-10-5.6-13.6c-1.2-1.2-2.5-2.2-4-3.1-.4-2.3-1.1-4.6-2.2-7.3-1.9-5-4.4-8.7-7.6-11.3l-.6-.5c-1.7-1.3-3.4-2.7-5.6-3.8-1.3-.6-2.5-1.1-3.7-1.5-.8-.3-1.5-.6-2.2-.9-2.7-1-5.8-1.6-9.2-1.6z" fill="#fff"/><path d="M168.6 82.2c-3.9 0-7.7-1.6-10.5-4.4-1.1-1.1-1.9-2.3-2.6-3.6-.3.1-.6.2-.8.3-1.3.4-2.7.5-4 .5-1.3 0-2.7-.2-4-.5-2.5-.7-4.8-2-6.6-3.9-1.8-1.8-3.1-4-3.8-6.5V64c-.7-2.6-.7-5.3 0-7.9.7-2.5 2-4.8 3.9-6.6 2.8-2.8 6.7-4.4 10.7-4.4 1.3 0 2.7.2 3.9.5 4 1.1 7.4 3.9 9.3 7.6 1.5-.5 3.1-.7 4.6-.7 3.9 0 7.7 1.6 10.5 4.4 2.8 2.8 4.4 6.6 4.4 10.5 0 3.9-1.6 7.7-4.4 10.5-2.9 2.7-6.7 4.3-10.6 4.3z" fill="#3f3a3c"/><path d="M150.7 46.7c1.2 0 2.4.2 3.5.5 4.1 1.1 7.4 4.2 8.9 8.1 1.7-.8 3.6-1.2 5.5-1.2 3.5 0 6.9 1.4 9.4 3.9s3.9 5.9 3.9 9.4-1.4 6.9-3.9 9.4-5.9 3.9-9.4 3.9-6.9-1.4-9.4-3.9c-1.3-1.3-2.3-2.8-2.9-4.5-.7.3-1.4.6-2.1.8-1.2.3-2.4.5-3.6.5-1.2 0-2.4-.2-3.6-.5-2.3-.6-4.2-1.8-5.9-3.4-1.7-1.7-2.8-3.6-3.4-5.9-.6-2.4-.6-4.7 0-7.1.6-2.3 1.8-4.2 3.4-5.9 2.6-2.7 6-4.1 9.6-4.1m0-3.2c-4.4 0-8.7 1.8-11.8 4.9-2.1 2.1-3.5 4.5-4.3 7.3-.8 2.9-.8 5.9 0 8.8V64.8c.8 2.7 2.2 5.1 4.2 7.2 2.1 2.1 4.5 3.5 7.3 4.3 1.5.4 3 .6 4.4.6 1.4 0 2.7-.2 4.1-.5.6 1 1.4 1.9 2.2 2.8 3.1 3.1 7.3 4.8 11.7 4.8 4.3 0 8.6-1.8 11.7-4.8 3.1-3.1 4.8-7.3 4.8-11.7 0-4.3-1.8-8.6-4.8-11.7-3.1-3.1-7.3-4.8-11.7-4.8-1.3 0-2.6.2-3.9.5-2.2-3.5-5.7-6.2-9.7-7.3-1.3-.5-2.8-.7-4.2-.7z" fill="#fff"/><path d="M123.3 78.1c-1.8 0-3.6-.2-5.4-.7h-.1l-1.7-.7c-3.1-1-5.8-2.7-8-4.9-3.8-3.8-6-9.1-6-14.4 0-5.4 2.2-10.6 6-14.4l.1-.1 4-3.1.1.1c3.2-1.8 6.6-2.7 10.3-2.7h.1l.1-.1c4.3.4 6.7.6 10.5 2.9 2.6 1.5 6.2 4.6 7.8 7.9l2 4.6v.1c1 3.6 1 7.2 0 10.8-1.4 5.1-4.8 9.5-9.3 12.1-3.3 1.6-6.8 2.6-10.5 2.6z" fill="#3f3a3c"/><path d="M122.5 38.4c4.1.4 6.2.6 9.9 2.7 2.6 1.5 5.8 4.5 7.1 7.2.6 1.5 1.3 3 1.9 4.5.9 3.3.9 6.6 0 9.9-1.3 4.7-4.4 8.7-8.6 11.2-2.9 1.7-6.2 2.5-9.5 2.5-1.7 0-3.3-.2-4.9-.7-.6-.2-1.1-.5-1.7-.7-2.8-.9-5.3-2.5-7.5-4.6-3.5-3.5-5.5-8.3-5.5-13.3s2-9.8 5.5-13.3L113 41c3-1.7 6.1-2.6 9.5-2.6m.2-3.4h-.1c-3.9 0-7.7 1.1-11.1 3.1l-.2.1-.2.2-3.8 2.9-.2.1-.1.1c-4.1 4.1-6.4 9.8-6.4 15.6 0 5.8 2.4 11.5 6.4 15.6 2.5 2.4 5.4 4.2 8.6 5.3l1.4.6.1.1.2.1.2.1c1.9.5 3.8.8 5.8.8 3.9 0 7.8-1 11.1-3 4.9-2.9 8.6-7.6 10.1-13.1 1-3.9 1-7.8 0-11.6l-.1-.2-.1-.2c-.6-1.5-1.3-3-1.9-4.5v-.2c-1.7-3.6-5.6-6.9-8.4-8.6-4.2-2.4-6.8-2.8-11.2-3.2l-.1-.1z" fill="#fff"/><path d="M84.7 121.8c-3.8-.1-7.4-1.8-10-4.5-2.6-2.7-4-6.5-3.9-10.2.1-3.8 1.8-7.4 4.5-10 2.6-2.5 6.2-3.9 9.8-3.9h.4c1.6 0 3.2.4 4.7 1 2.9-5.8 8.8-9.5 15.3-9.5h.5c4.5.1 8.7 2.1 11.9 5.4 3.1 3.3 4.8 7.7 4.7 12.2-.3 9.1-7.9 16.5-17.1 16.5h-.5c-3-.1-5.9-1-8.5-2.6-.5.7-1 1.3-1.6 1.8-2.6 2.5-6.2 3.9-9.8 3.9-.1-.1-.3-.1-.4-.1z" fill="#3f3a3c"/><path d="M105.6 86.2h.5c8.4.3 15.2 7.5 15 15.9-.2 8.3-7.2 15-15.4 15h-.5c-3.4-.1-6.5-1.3-9-3.3-.6 1.1-1.4 2.1-2.3 2.9-2.4 2.2-5.5 3.5-8.7 3.5h-.4c-3.4-.1-6.6-1.6-8.9-4-2.3-2.4-3.5-5.7-3.4-9.1.1-3.4 1.5-6.6 4-8.9 2.4-2.2 5.5-3.5 8.7-3.5h.4c2 .1 3.9.6 5.6 1.5 2.2-5.8 7.9-10 14.4-10m0-3.2c-6.6 0-12.7 3.6-16 9.2-1.3-.4-2.6-.6-3.9-.6h-.5c-4.1 0-8 1.5-10.9 4.3-3.1 2.9-4.9 6.9-5 11.1-.1 4.2 1.5 8.3 4.3 11.4 2.9 3.1 6.9 4.9 11.1 5h.5c4.1 0 8-1.5 10.9-4.3l.9-.9c2.5 1.3 5.2 2.1 8.1 2.1h.6c10 0 18.4-8.1 18.7-18.1.3-10.1-8-18.9-18.1-19.2h-.7z" fill="#fff"/><path d="M173.5 114c-1.8 0-3.6-.2-5.4-.7h-.1l-1.7-.7c-3.1-1-5.8-2.7-8.1-4.9-3.8-3.8-6-9.1-6-14.4 0-5.4 2.2-10.6 6-14.4l.1-.1 4-3.1.1.1c3.2-1.8 6.6-2.6 10.3-2.6h.1l.1-.2c4.3.4 6.7.6 10.5 2.8 2.6 1.5 6.2 4.6 7.8 7.8l2 4.6v.1c1 3.6 1 7.2 0 10.8-1.4 5.1-4.8 9.5-9.3 12.1-3.2 1.8-6.8 2.8-10.4 2.8z" fill="#3f3a3c"/><path d="M172.7 74.3c4.1.4 6.2.6 9.9 2.7 2.6 1.5 5.8 4.5 7.1 7.2.6 1.5 1.3 3 1.9 4.5.9 3.3.9 6.6 0 9.9-1.3 4.7-4.4 8.7-8.6 11.2-2.9 1.7-6.2 2.5-9.5 2.5-1.7 0-3.3-.2-4.9-.7-.6-.2-1.1-.5-1.7-.7-2.8-.9-5.3-2.4-7.5-4.6-3.5-3.5-5.5-8.3-5.5-13.3s2-9.8 5.5-13.3l3.8-2.9c2.9-1.6 6.1-2.5 9.5-2.5m.1-3.3h-.1c-3.9 0-7.7 1.1-11.1 3l-.2.1-.2.1-3.8 2.9-.2.1-.1.1c-4.1 4.1-6.4 9.8-6.4 15.6 0 5.8 2.3 11.5 6.4 15.6 2.5 2.4 5.4 4.2 8.6 5.3l.5.2 1 .4.2.1.2.1c1.9.5 3.8.8 5.8.8 3.9 0 7.8-1 11.1-3 4.9-2.9 8.6-7.6 10.1-13.1 1-3.9 1-7.8 0-11.6l-.1-.2-.1-.2-1.9-4.5v-.2c-1.7-3.6-5.6-6.9-8.4-8.6-4.1-2.4-6.8-2.8-11.2-3.2l-.1.2z" fill="#fff"/><path d="M74.7 86.4c-1.7 0-3.4-.3-5.1-.8-3.8-1.3-7.1-4.2-8.9-7.9-1.8-3.7-2-8-.7-11.8 1.3-3.8 4.2-7.1 7.9-8.9 2.1-1 4.4-1.5 6.8-1.5 1.7 0 3.4.3 5.1.8h.1c1.4-3.3 3.9-6 7.1-7.5 2-1 4.2-1.5 6.4-1.5 1.6 0 3.2.3 4.8.8 3.6 1.3 6.7 4 8.3 7.4 1.7 3.5 1.9 7.5.7 11.1-1.3 3.6-4 6.7-7.4 8.3-2 1-4.2 1.5-6.4 1.5-1.3 0-2.7-.2-3.9-.5v.1c-1.3 3.8-4.2 7.1-7.9 8.8-2.2 1.1-4.5 1.6-6.9 1.6z" fill="#3f3a3c"/><path d="M93.3 49c1.4 0 2.9.2 4.2.7 3.2 1.1 5.9 3.5 7.4 6.6 1.5 3.1 1.7 6.7.6 9.9s-3.5 5.9-6.6 7.4c-1.8.9-3.7 1.3-5.7 1.3-1.4 0-2.9-.2-4.2-.7-.3-.1-.5-.2-.8-.3-.1.5-.3 1.1-.4 1.6-1.2 3.5-3.7 6.3-7 7.9-1.9.9-4 1.4-6.1 1.4-1.5 0-3.1-.3-4.5-.8-3.5-1.2-6.3-3.7-7.9-7-1.6-3.3-1.8-7.1-.6-10.6 1.2-3.5 3.7-6.3 7-7.9 1.9-.9 4-1.4 6.1-1.4 1.5 0 3.1.3 4.5.8l1.5.6c.1-.3.2-.6.3-.8 1.1-3.2 3.5-5.9 6.6-7.4 1.7-.9 3.7-1.3 5.6-1.3m0-3.2c-2.4 0-4.9.6-7.1 1.6-3.1 1.5-5.7 4-7.3 7-1.4-.4-2.8-.5-4.2-.5-2.6 0-5.2.6-7.5 1.7-4 2-7.2 5.5-8.7 9.8-1.5 4.2-1.2 9 .8 13s5.5 7.2 9.8 8.7c1.8.6 3.7.9 5.6.9 2.6 0 5.2-.6 7.5-1.7 3.6-1.8 6.5-4.8 8.2-8.5 1 .2 2 .3 3 .3 2.4 0 4.9-.6 7.1-1.6 3.8-1.9 6.8-5.2 8.2-9.3 1.4-4 1.1-8.5-.7-12.4-1.9-3.8-5.2-6.8-9.3-8.2-1.8-.5-3.6-.8-5.4-.8z" fill="#fff"/><path d="M152.9 134.3c-3.2 0-6.2-1.1-8.5-3.1-1.3-.7-2.6-1.6-3.7-2.6-.7.6-1.5 1.1-2.3 1.5-1.8 1.1-3.3 1.6-6.2 2.4h-.1c-1.2.2-2.4.3-3.5.3-2.2 0-4.4-.4-6.5-1.2h-.1l-4.2-2.2-.1-.1c-2.7-1.9-4.8-4.4-6.2-7.4v-.1c-1.2-3-2.4-6.6-1.7-10 .1-2 1.1-5 1.1-5.1.5-1.4 1.2-2.6 1.9-3.8l.5-.8 3.2-3.5.1-.1c2.6-2.2 5.6-3.6 8.9-4.2h.1l5-.3h.1c3.4.3 6.6 1.4 9.5 3.4l.3.2.1.1 1 .9c1.9-2 4.5-3.2 7.3-3.2h.8c2.5.2 4.7 1.3 6.4 3.1.6-.7 1.2-1.3 1.9-1.9 2.8-2.4 6.4-3.7 10-3.7.4 0 .9 0 1.3.1 4.1.3 7.9 2.3 10.6 5.4l.1.1 2.1 3.2v.1c1.2 2.5 1.7 5.2 1.5 8v.1l-.1.5-.8 3.7v.1c-.9 2.5-2.5 4.7-4.5 6.5-2.8 2.4-6.4 3.7-10 3.7h-.7c-1.5 3.9-4.4 6.9-8.2 8.6-2.5.9-4.4 1.3-6.4 1.3z" fill="#3f3a3c"/><path d="M167.7 94.8h1.1c3.7.3 7.1 2.1 9.5 4.9.6 1 1.3 2 1.9 3 1.1 2.3 1.5 4.7 1.3 7.2 0 .1-.1.3-.1.4-.3 1.2-.5 2.4-.8 3.6-.8 2.3-2.2 4.2-4.1 5.8-2.5 2.1-5.7 3.3-9 3.3h-1.1c-.2 0-.5 0-.7-.1-1.1 3.9-3.9 7.2-7.7 8.8-1.7.7-3.5 1.1-5.2 1.1-2.8 0-5.5-.9-7.6-2.8-1.7-.9-3.3-2.2-4.5-3.5l-.4.4c-.9.7-1.8 1.4-2.8 1.9-1.7 1.1-3.1 1.5-5.8 2.2-1.1.2-2.2.3-3.2.3-2 0-4-.4-6-1.1-1.3-.7-2.7-1.4-4-2.1-2.5-1.8-4.4-4-5.7-6.7-1.1-2.7-2.2-6.1-1.7-9.1v.2s.6-3.7 1.1-5c.5-1.5 1.4-2.9 2.2-4.3l3-3.3c2.4-2 5.1-3.3 8.1-3.9 1.6-.1 3.2-.2 4.7-.2 3.2.3 6.1 1.3 8.7 3.1.8.7 1.6 1.5 2.4 2.2 1.5-2.4 4.2-4 7.1-4h.7c2.8.2 5.2 1.9 6.5 4.2.8-1.3 1.7-2.4 2.9-3.4 2.7-2 6-3.1 9.2-3.1m0-3.3c-4.1 0-8 1.4-11.1 4.1l-.9.9c-1.8-1.4-3.9-2.3-6.2-2.4h-.9c-2.7 0-5.2 1-7.3 2.6l-.1-.1-.1-.1-.2-.1c-3.1-2.1-6.5-3.4-10.2-3.7h-.9l-4.2.2h-.4c-3.6.7-6.8 2.2-9.6 4.6l-.2.1-.1.2-1.6 1.7-1.4 1.6-.2.3-.2.3c-.1.2-.3.5-.4.7-.7 1.2-1.5 2.6-2.1 4.1-.1.3-.4 1-.9 3.4-.2.8-.3 1.5-.4 2-.7 3.8.6 7.8 1.8 10.8v.2c1.6 3.2 3.8 5.9 6.7 8l.2.1.2.1 3.7 1.9.3.1.2.1.2.1c2.3.8 4.7 1.3 7.1 1.3 1.3 0 2.5-.1 3.8-.3h.2c2.7-.7 4.5-1.2 6.6-2.6.5-.3.9-.6 1.4-.9.9.7 1.8 1.4 2.8 1.9 2.6 2.2 6 3.3 9.4 3.3 2.2 0 4.4-.5 6.5-1.4 3.9-1.7 6.9-4.7 8.6-8.4 3.9-.1 7.7-1.5 10.7-4 2.3-1.9 4-4.3 5-7.1l.1-.2v-.2l.1-.3c.2-1.1.5-2.2.7-3.3l.1-.3v-.5c.2-3.1-.3-6-1.6-8.8l-.1-.2-.1-.2-.3-.4c-.6-.9-1.1-1.7-1.7-2.6l-.1-.2-.1-.2c-2.9-3.4-7.2-5.6-11.7-6-.1-.2-.6-.2-1.1-.2z" fill="#fff"/><path d="M153.5 109.3c-2.9 0-5.7-.6-8.4-1.9h-.1l-4.1-2.7-.1-.1c-2.6-2.3-4.4-5-5.5-8.3l-.1-.2v-.2l-.3-1.4c-.6.1-1.2.2-1.9.2-2.4 0-4.7-.9-6.5-2.4-1.9-1.6-3-3.9-3.3-6.3-.9.2-1.7.3-2.6.4h-1c-3.8 0-7.4-1.4-10.3-3.9-3.1-2.7-5-6.6-5.2-10.7v-.1l.2-3.8v-.1c.5-2.7 1.7-5.2 3.6-7.3l.1-.1.4-.3 2.9-2.5.1-.1c2.3-1.5 4.8-2.3 7.5-2.5h1c3.6 0 7.1 1.2 9.8 3.5 2.5-1.6 5.3-2.4 8.2-2.4 1.2 0 2.4.1 3.5.4 5.3 1.3 9.3 5.1 10.5 10.1.6 1.3 1.1 2.8 1.4 4.3h.3c.8 0 1.7.1 2.5.2 2.2.2 3.8.8 6.4 1.8l.1.1c3.1 1.5 5.7 3.8 7.6 6.7l.1.1 2.1 4.3v.1c1 3.1 1.2 6.4.6 9.6v.1c-.8 3.1-2 6.7-4.5 9-.3.3-.8.7-1.4 1.3-1.1 1-2 1.7-2.5 2.1-1.2.8-2.6 1.4-3.8 1.9l-.9.4-4.7.9h-.1c-.8-.2-1.2-.2-1.6-.2z" fill="#3f3a3c"/><path d="M119.8 56.6c3.4 0 6.6 1.2 9.2 3.5.2.2.4.3.5.5 2.4-1.9 5.3-2.9 8.3-2.9 1 0 2.1.1 3.2.4 4.8 1.1 8.3 4.6 9.3 9 .8 1.7 1.3 3.7 1.5 5.5.2 0 .4 0 .6-.1h1.1c.8 0 1.5 0 2.3.1 2 .2 3.4.6 6 1.7 2.9 1.4 5.2 3.5 6.9 6.1.7 1.4 1.3 2.7 2 4.1.9 2.9 1.1 5.8.6 8.8-.7 2.8-1.8 6.2-4.1 8.3l.1-.1s-2.7 2.6-3.8 3.3c-1.3.9-2.9 1.5-4.3 2.1-1.5.3-3 .6-4.4.9h-1.1c-2.7 0-5.3-.6-7.7-1.8-1.3-.9-2.6-1.8-3.9-2.6-2.4-2.1-4.1-4.7-5.1-7.7l-.6-3.3c-1 .4-2.1.6-3.1.6-2 0-3.9-.7-5.5-2-2.1-1.9-3.1-4.7-2.7-7.3-1.4.6-2.8.9-4.4 1h-.9c-3.4 0-6.7-1.2-9.2-3.5-2.8-2.4-4.5-5.9-4.7-9.6.1-1.2.2-2.4.2-3.6.5-2.5 1.6-4.6 3.2-6.5l.3-.3c.9-.8 1.9-1.6 2.8-2.4 2-1.3 4.3-2.1 6.7-2.2h.7m0-3.3h-1.1c-3 .2-5.8 1.1-8.3 2.8l-.2.1-.2.2-1.7 1.5-1.1 1-.1.1-.2.1-.1.1-.1.1c-2 2.3-3.3 5-3.9 8v.4l-.1 2.2-.1 1.4v.4c.3 4.5 2.4 8.8 5.8 11.8 3.1 2.8 7.2 4.3 11.3 4.3h1.1c.4 0 .8-.1 1.3-.1.6 2.2 1.8 4.1 3.5 5.6 2.1 1.8 4.6 2.8 7.4 2.8h.4v.2l.4.5c1.2 3.4 3.3 6.4 6 8.9l.2.1.2.1 2 1.3 2 1.3.2.1.2.1c2.9 1.4 5.9 2.1 9.1 2.1h1.7l.6-.1 3.8-.7.3-.1.3-.1c.2-.1.5-.2.7-.3 1.3-.5 2.7-1.2 4.1-2.1.2-.1.9-.6 2.7-2.2.5-.5 1-.9 1.4-1.3 2.9-2.7 4.2-6.6 5-9.8v-.2c.7-3.5.4-7-.7-10.4l-.1-.2-.1-.2-.5-1-1.5-3.1-.1-.2-.1-.2c-2.1-3.1-4.8-5.6-8.2-7.2l-.1-.1h-.1c-2.6-1-4.3-1.7-6.8-1.9-.5-.1-1.1-.1-1.6-.1-.3-1.1-.7-2.2-1.1-3.2-1.4-5.5-5.8-9.7-11.6-11.1-1.3-.3-2.6-.5-3.9-.5-2.8 0-5.6.7-8.1 2.1-2.8-2.1-6.3-3.3-9.9-3.3z" fill="#fff"/><path d="M133.3 111.7c-1.5 0-2.9-.2-4.2-.7-2.6-1-4.9-2.5-6.9-4.8-1.8 2.9-4.9 4.7-8.4 4.7-2.6 0-5.2-1.1-7.1-3-1.9-1.9-2.9-4.4-2.8-7 0-2 .3-4.1.6-5.9.3-1.9 1.1-3.6 1.8-5.2 0 0 .5-1.1.6-1.3.2-.7.6-1.9 1.3-2.7 1-1.9 2.3-3.1 3.4-4 2.6-2.7 5.5-4 9.1-4 .7 0 1.5.1 2.2.2.9.1 1.9.4 2.8 1l1.8.9c1.4.8 2.6 1.9 3.7 3 1 .9 1.8 2 2.5 3.2.1-.2.4-1 .4-1 1-2.6 2.2-5.2 5.2-6.4.7-.3 1.5-.5 2.4-.5 2.1 0 4.2 1 5.4 2.4 1.1 1.5 1.7 3.3 2.1 4.5.1.3.2.5.2.7.9 2.4 1 5.6.4 9.8-.8 5.9-4.3 11.3-9.4 14.5-2.1.9-4.6 1.6-7.1 1.6z" fill="#3f3a3c"/><path d="M105.5 100.9c-.1 4.6 3.9 8.3 8.3 8.3 3.9 0 6.9-2.6 8-6.1 2.1 2.8 4.4 5.1 7.9 6.3 3.2 1.1 7 .6 9.9-1.1 4.7-2.9 7.9-7.9 8.7-13.3.4-2.8.6-6.3-.4-9-.4-1-.9-3.1-2.1-4.7-1.2-1.5-4-2.3-5.8-1.4-2.4 1-3.4 3.2-4.3 5.5-.2.6-.5 1.1-.6 1.7 0 .1 0 .1-.1.2-.4.8-.6 1.6-.9 2.3-1-2-2.2-4.3-3.8-5.8-1-1-2.1-2-3.4-2.7-.4-.2-1.2-.6-1.7-.9-.7-.4-1.5-.7-2.3-.8-4.3-.6-7.4.7-10 3.4-1.3 1-2.4 2.1-3.2 3.7.4-.9-2.4 4.6-.6 1.4-.3.5-.5 1-.8 1.5-.8 1.9-1.7 3.6-2.1 5.6-.4 2.1-.7 4-.7 5.9z" fill="#3f3a3c"/><path d="M120.7 79.4c.6 0 1.3 0 2 .1.8.1 1.6.3 2.3.8.6.3 1.4.7 1.7.9 1.2.7 2.4 1.7 3.4 2.7 1.6 1.6 2.8 3.8 3.8 5.8.3-.8.6-1.6.9-2.3 0-.1 0-.1.1-.2.2-.6.4-1.2.6-1.7.9-2.3 1.9-4.5 4.3-5.5.5-.2 1.1-.3 1.8-.3 1.6 0 3.2.7 4.1 1.8 1.2 1.5 1.7 3.7 2.1 4.7 1 2.7.7 6.2.4 9-.8 5.5-4 10.4-8.7 13.3-1.8 1.1-4 1.7-6.2 1.7-1.2 0-2.5-.2-3.6-.6-3.4-1.2-5.8-3.5-7.9-6.3-1 3.5-4.1 6.1-8 6.1-4.5 0-8.4-3.8-8.3-8.3 0-1.9.3-3.8.6-5.7.3-2 1.2-3.8 2.1-5.6.2-.5.5-1 .8-1.5-.4.7-.6 1-.6 1l1.3-2.5v.1c.8-1.6 1.9-2.7 3.2-3.7 2-2.6 4.5-3.8 7.8-3.8m0-3.2c-3.9 0-7.3 1.4-10.2 4.4-1.2 1-2.7 2.5-3.8 4.6-.1.3-.3.6-.6 1.2-.4.7-.6 1.3-.8 1.8 0 .1-.1.1-.1.2-.1.3-.2.5-.3.8-.8 1.7-1.6 3.5-1.9 5.6-.3 1.9-.6 4-.7 6.2 0 3 1.1 5.9 3.3 8.1 2.2 2.2 5.2 3.5 8.3 3.5 3.3 0 6.4-1.4 8.5-3.8 1.6 1.5 3.6 2.9 6.2 3.8 1.5.5 3.1.8 4.7.8 2.8 0 5.6-.8 7.9-2.2 5.5-3.4 9.3-9.2 10.2-15.6.6-4.4.4-7.9-.5-10.5-.1-.2-.1-.4-.2-.6-.4-1.3-1-3.3-2.3-4.9-1.4-1.9-4-3.1-6.6-3.1-1.1 0-2.1.2-3 .6-2.9 1.3-4.4 3.6-5.4 5.6-.3-.3-.6-.7-.9-1-1.2-1.2-2.5-2.4-4.1-3.2-.5-.3-1.4-.7-1.8-.9-1.1-.6-2.2-1-3.4-1.1-.9-.3-1.7-.3-2.5-.3z" fill="#fff"/><path d="M163.1 117c.7 1.5 1.1 3.2 1.1 5 0 6.3-5.1 11.4-11.4 11.4s-11.4-5.1-11.4-11.4c0-.8.1-1.5.2-2.2M86.9 122.1c-4.1 6.8-13.7 8-19.4 2.6-5.5-5.2-5-14.4 1.1-19 .8-.6 1.7-1.1 2.7-1.5M61.8 80.2c-4.1-5.6-3.7-13.8 1.5-18.6 5.3-5 14-5.2 19.4-.2M150.3 86.4c2.8-2.4 6.6-1.4 9.3.7" fill="none" stroke="#fff" stroke-width="3.222" stroke-linecap="round" stroke-miterlimit="10"/><g><path d="M94.4 100.5c-9.2 0-17.1-7.8-17.1-17.1s7.8-17.1 17.1-17.1c3 0 6 .8 8.6 2.4.5-.7 1-1.3 1.6-1.9 2.7-2.7 6.4-4.2 10.1-4.2 3.8 0 7.5 1.5 10.1 4.2 2.7 2.7 4.2 6.4 4.2 10.1 0 3.8-1.5 7.5-4.2 10.1-2.7 2.7-6.4 4.2-10.1 4.2-1.6 0-3.2-.3-4.8-.8-2.7 6.2-8.8 10.1-15.5 10.1z" fill="#3f3a3c"/><path d="M114.7 64.3c3.4 0 6.6 1.4 9 3.7 2.4 2.4 3.7 5.6 3.7 9 0 3.4-1.3 6.6-3.7 9-2.4 2.4-5.6 3.7-9 3.7-2 0-3.9-.5-5.6-1.3-2.1 6.1-7.9 10.5-14.6 10.5-8.4 0-15.4-7-15.4-15.4C79 75 86 68 94.4 68c3.4 0 6.5 1.1 9.1 3 .6-1.1 1.3-2.1 2.2-3 2.4-2.3 5.6-3.7 9-3.7m0-3.2c-4.2 0-8.3 1.7-11.3 4.7l-.9.9c-2.5-1.2-5.3-1.9-8.1-1.9-10.1 0-18.7 8.5-18.7 18.7 0 10.1 8.5 18.7 18.7 18.7 6.8 0 13.1-3.8 16.3-9.7 1.3.3 2.6.5 3.9.5 4.2 0 8.3-1.7 11.3-4.7s4.7-7.1 4.7-11.3c0-4.2-1.7-8.3-4.7-11.3-2.9-2.9-7-4.6-11.2-4.6z" fill="#fff"/></g><path d="M109.3 90.4s-6.1-12.8-16.5-9.2M180.5 87.4s-1.4 4.1-7.5 7.8M161.1 49.3c4 3.7 4.7 10.2 2.3 14.3M132.3 84c2.4 2.6 3.7 8.9 3.1 12.7M123.3 107.6s-4.5-3.5-5-9.9M154.9 109.2s-13.3 14.6-29.3 11M121.6 50s2.9 2.7 4 5.5" fill="none" stroke="#fff" stroke-width="3.222" stroke-linecap="round" stroke-miterlimit="10"/><g fill="none" stroke="#ff7543" stroke-width="7.644" stroke-linecap="round" stroke-miterlimit="10"><path d="M202.6 21l14.4-8.5M219 50.6l16.4-3.4M225 83.8l16.6 2.1M220.1 117.3l15 7.3"/></g><g fill="none" stroke="#ff7543" stroke-width="7.644" stroke-linecap="round" stroke-miterlimit="10"><path d="M42.9 21l-14.4-8.5M26.5 50.6l-16.4-3.4M20.4 83.8L3.8 85.9M25.4 117.3l-15.1 7.3"/></g></svg>